# xmcd
#
# Track frame offsets: 
#        182
#        28285
#        54840
#        67672
#        97267
#        110192
#        130922
#        143022
#        162485
#
# Disc length: 2427 seconds
#
# Revision: 0
# Processed by: cddbd v1.5.2PL0 Copyright (c) Steve Scherf et al.
# Submitted via: ExactAudioCopy v1.1
#
DISCID=7f097909
DTITLE=schwab, john - ain't 'live' funny (w mike nugen)
DYEAR=1994
DGENRE=Crossover
TTITLE0=ain't life funny
TTITLE1=be a friend of mine
TTITLE2=music man
TTITLE3=crack of dawn
TTITLE4=my name is bert
TTITLE5=there's only one of us now
TTITLE6=bend over johnny
TTITLE7=little bits and pieces
TTITLE8=rocky top
EXTD=
EXTT0=
EXTT1=
EXTT2=
EXTT3=
EXTT4=
EXTT5=
EXTT6=
EXTT7=
EXTT8=
PLAYORDER=
